<svg xmlns="http://www.w3.org/2000/svg" width="880" height="64" viewBox="0 0 880 64" role="img" aria-label="footer"><style>.t1{animation:tw 3.2s ease-in-out infinite alternate} .t2{animation:tw 4.6s ease-in-out -1.7s infinite alternate} .t3{animation:tw 6.1s ease-in-out -3.3s infinite alternate} @keyframes tw{from{opacity:.08}} .rv{animation:rv .8s cubic-bezier(.2,.7,.2,1) both} @keyframes rv{from{opacity:0;transform:translateY(10px)}} @media (prefers-reduced-motion:reduce){*{animation:none!important}}</style><defs><linearGradient id="accent" x1="0" y1="0.4" x2="1" y2="0.6"><stop offset="0" stop-color="#a78bfa"/><stop offset="1" stop-color="#f472b6"/></linearGradient><radialGradient id="glowV" cx="0.85" cy="0" r="0.6"><stop offset="0" stop-color="#7c3aed" stop-opacity="0.22"/><stop offset="0.7" stop-color="#7c3aed" stop-opacity="0"/></radialGradient><radialGradient id="glowP" cx="0" cy="1" r="0.5"><stop offset="0" stop-color="#ec4899" stop-opacity="0.12"/><stop offset="0.7" stop-color="#ec4899" stop-opacity="0"/></radialGradient><radialGradient id="glowC" cx="0.3" cy="0.3" r="0.4"><stop offset="0" stop-color="#67e8f9" stop-opacity="0.05"/><stop offset="0.7" stop-color="#67e8f9" stop-opacity="0"/></radialGradient><path id="mono400-269" d="M300 110Q224 110 166 140Q109 170 77 224Q45 278 45 350V500Q45 572 77 626Q109 680 166 710Q224 740 300 740Q377 740 434 710Q491 680 523 626Q555 572 555 500V350Q555 278 523 224Q491 170 434 140Q377 110 300 110ZM300 160Q360 160 405 184Q450 207 475 250Q500 293 500 350V500Q500 557 475 600Q450 642 405 666Q360 690 300 690Q240 690 195 666Q150 642 125 600Q100 557 100 500V350Q100 293 125 250Q150 207 195 184Q240 160 300 160ZM305 245Q249 245 214 276Q180 308 180 360V490Q180 542 214 574Q249 605 305 605Q361 605 395 574Q429 542 429 490H364Q364 517 348 534Q331 550 305 550Q278 550 262 534Q245 517 245 490V360Q245 333 262 316Q278 300 305 300Q331 300 348 316Q364 333 364 360H429Q429 308 395 276Q361 245 305 245Z"/><path id="mono400-125" d="M92 0V92L315 329Q372 390 398 438Q424 485 424 529Q424 590 390 625Q357 660 299 660Q235 660 198 624Q162 588 162 525H72Q74 591 102 640Q131 688 182 714Q232 740 299 740Q365 740 414 714Q462 689 488 642Q514 595 514 530Q514 468 481 407Q448 346 373 268L193 82H526V0Z"/><path id="mono400-123" d="M300 -10Q233 -10 184 16Q134 43 107 92Q80 140 80 205V525Q80 591 107 639Q134 687 184 714Q233 740 300 740Q368 740 417 714Q466 687 493 639Q520 591 520 525V205Q520 140 493 92Q466 43 416 16Q367 -10 300 -10ZM300 67Q360 67 396 106Q433 144 433 205V525Q433 586 396 624Q360 663 300 663Q240 663 204 624Q167 586 167 525V205Q167 144 204 106Q240 67 300 67ZM300 306Q273 306 256 323Q240 340 240 368Q240 395 256 412Q273 428 300 428Q327 428 344 412Q360 395 360 368Q360 340 344 323Q327 306 300 306Z"/><path id="mono400-129" d="M301 -10Q231 -10 178 20Q126 49 97 102Q68 155 68 225Q68 280 84 333Q99 386 130 435L313 730H413L206 398L210 395Q229 423 262 438Q295 453 336 453Q396 453 440 425Q484 397 508 346Q532 295 532 225Q532 155 503 102Q474 49 422 20Q371 -10 301 -10ZM300 70Q364 70 403 112Q442 155 442 225Q442 295 403 338Q364 380 300 380Q236 380 197 338Q158 295 158 225Q158 155 197 112Q236 70 300 70Z"/><path id="mono400-29" d="M92 0V730H182V417H290L452 730H550L369 379L560 0H457L287 338H182V0Z"/><path id="mono400-80" d="M85 0V82H280V468H110V550H370V82H555V0ZM315 649Q282 649 263 666Q244 683 244 712Q244 742 263 760Q282 777 315 777Q348 777 367 760Q386 742 386 712Q386 683 367 666Q348 649 315 649Z"/><path id="mono400-90" d="M375 0Q327 0 291 19Q255 38 235 73Q215 108 215 155V648H30V730H305V155Q305 121 324 102Q343 82 375 82H550V0Z"/><path id="mono400-59" d="M252 -10Q165 -10 115 34Q65 79 65 155Q65 232 115 276Q165 320 250 320H420V375Q420 426 390 454Q359 481 303 481Q254 481 221 460Q188 440 183 405H93Q102 476 160 518Q218 560 305 560Q400 560 455 511Q510 462 510 378V0H422V105H407L422 120Q422 60 376 25Q329 -10 252 -10ZM274 61Q338 61 379 93Q420 125 420 175V253H252Q207 253 181 228Q155 203 155 160Q155 114 186 88Q218 61 274 61Z"/><path id="mono400-31" d="M76 0V730H194L270 494Q281 462 290 430Q299 399 303 382Q308 399 316 430Q324 462 334 495L406 730H524V0H436V265Q436 309 439 365Q442 421 447 480Q452 538 458 592Q463 645 467 685L349 320H254L135 685Q140 646 145 594Q150 543 154 486Q158 428 161 371Q164 314 164 265V0Z"/><path id="mono400-72" d="M300 -10Q235 -10 186 16Q138 42 112 90Q85 137 85 200V350Q85 414 112 461Q138 508 186 534Q235 560 300 560Q365 560 414 534Q462 508 488 461Q515 414 515 350V253H173V200Q173 135 206 100Q239 66 300 66Q352 66 384 84Q416 103 423 140H513Q504 71 446 30Q387 -10 300 -10ZM427 313V350Q427 415 394 450Q362 485 300 485Q239 485 206 450Q173 415 173 350V321H434Z"/><path id="mono400-102" d="M92 -180V550H182V445H200L182 424Q182 487 224 524Q265 560 333 560Q416 560 466 506Q515 451 515 356V195Q515 132 492 86Q470 40 430 15Q389 -10 333 -10Q266 -10 224 27Q182 64 182 126L200 105H180L182 -20V-180ZM303 68Q360 68 392 102Q425 136 425 200V350Q425 414 392 448Q360 482 303 482Q248 482 215 447Q182 412 182 350V200Q182 138 215 103Q248 68 303 68Z"/><path id="mono400-78" d="M161 -180V-98H336Q378 -98 398 -79Q417 -60 417 -20V50L419 150H401L418 165Q418 105 378 70Q338 35 271 35Q186 35 137 90Q88 146 88 240V356Q88 450 137 505Q186 560 271 560Q338 560 378 525Q418 490 418 430L401 445H418V550H507V-20Q507 -94 462 -137Q416 -180 335 -180ZM298 113Q354 113 386 148Q418 183 418 245V350Q418 412 386 447Q354 482 298 482Q241 482 210 448Q178 414 178 350V245Q178 181 210 147Q241 113 298 113Z"/><path id="mono400-108" d="M360 0Q289 0 250 38Q210 76 210 145V468H55V550H210V705H300V550H520V468H300V145Q300 82 360 82H510V0Z"/><path id="mono400-79" d="M92 0V730H182V550V445H201L182 424Q182 489 221 524Q260 560 329 560Q412 560 461 509Q510 458 510 370V0H420V360Q420 419 388 452Q357 484 303 484Q247 484 214 449Q182 414 182 350V0Z"/><path id="mono400-109" d="M299 -10Q204 -10 147 46Q90 103 90 200V550H180V200Q180 138 212 104Q244 69 299 69Q355 69 388 104Q420 138 420 200V550H510V200Q510 103 452 46Q394 -10 299 -10Z"/><path id="mono400-67" d="M332 -10Q264 -10 223 26Q182 63 182 126L200 105H182V0H92V730H182V570L180 445H200L182 424Q182 486 224 523Q265 560 332 560Q415 560 465 505Q515 450 515 355V194Q515 100 465 45Q415 -10 332 -10ZM302 68Q359 68 392 102Q425 136 425 200V350Q425 414 392 448Q359 482 302 482Q247 482 214 447Q182 412 182 350V200Q182 138 214 103Q247 68 302 68Z"/><path id="mono400-149" d="M300 260Q262 260 240 282Q217 304 217 341Q217 380 240 403Q262 426 300 426Q338 426 360 403Q383 380 383 341Q383 304 360 282Q338 260 300 260Z"/><path id="mono400-70" d="M268 -10Q186 -10 136 45Q85 100 85 194V355Q85 450 135 505Q185 560 268 560Q336 560 377 523Q418 486 418 424L400 445H420L418 570V730H508V0H418V105H400L418 126Q418 63 377 26Q336 -10 268 -10ZM298 68Q354 68 386 103Q418 138 418 200V350Q418 412 386 447Q354 482 298 482Q241 482 208 448Q175 414 175 350V200Q175 136 208 102Q241 68 298 68Z"/><path id="mono400-106" d="M283 -8Q227 -8 186 10Q144 27 120 59Q95 91 90 135H180Q186 106 212 89Q239 72 283 72H325Q378 72 404 94Q430 115 430 151Q430 186 406 206Q383 227 337 234L263 246Q182 260 142 296Q103 333 103 403Q103 477 150 518Q197 558 291 558H329Q408 558 456 521Q504 484 514 421H424Q418 447 394 462Q370 478 329 478H291Q240 478 216 459Q193 440 193 402Q193 368 213 352Q233 336 276 329L350 317Q439 303 480 265Q520 227 520 155Q520 79 472 36Q423 -8 325 -8Z"/><path id="mono400-68" d="M304 -10Q238 -10 188 15Q139 40 112 88Q85 135 85 200V350Q85 416 112 463Q139 510 188 535Q238 560 304 560Q399 560 457 509Q515 458 518 370H428Q425 423 392 452Q360 480 304 480Q245 480 210 446Q175 413 175 351V200Q175 138 210 104Q245 70 304 70Q360 70 392 99Q425 128 428 180H518Q515 92 457 41Q399 -10 304 -10Z"/><path id="mono400-94" d="M300 -8Q234 -8 186 17Q138 42 112 90Q85 137 85 202V348Q85 414 112 461Q138 508 186 533Q234 558 300 558Q366 558 414 533Q462 508 488 461Q515 414 515 349V202Q515 137 488 90Q462 42 414 17Q366 -8 300 -8ZM300 72Q359 72 392 105Q425 138 425 202V348Q425 412 392 445Q359 478 300 478Q242 478 208 445Q175 412 175 348V202Q175 138 208 105Q242 72 300 72Z"/><path id="mono400-105" d="M111 0V550H199V445H220L191 380Q191 469 230 514Q268 560 344 560Q431 560 482 506Q534 451 534 358V325H444V350Q444 415 412 450Q381 484 323 484Q266 484 234 449Q201 414 201 350V0Z"/><path id="mono400-89" d="M95 0V730H185V323H291L451 550H554L369 288L557 0H452L292 245H185V0Z"/><path id="mono400-91" d="M66 0V550H145V484H163L149 460Q149 506 174 533Q198 560 240 560Q286 560 311 526Q336 492 336 430L309 484H351L332 460Q332 506 358 533Q383 560 425 560Q477 560 506 521Q534 482 534 418V0H451V419Q451 453 436 472Q422 491 394 491Q367 491 352 472Q336 454 336 420V0H264V419Q264 454 248 472Q233 491 205 491Q177 491 163 472Q149 454 149 420V0Z"/><path id="mono400-140" d="M300 -10Q262 -10 240 12Q217 34 217 71Q217 110 240 133Q262 156 300 156Q338 156 360 133Q383 110 383 71Q383 34 360 12Q338 -10 300 -10Z"/><clipPath id="c1"><rect x="0" y="0" width="880" height="64" rx="14"/></clipPath></defs><g clip-path="url(#c1)"><rect x="0" y="0" width="880" height="64" fill="#07060d"/><g fill="#fff"><circle class="t1" cx="528.57" cy="11.11" r="0.41" opacity="0.63"/><circle class="t1" cx="409.44" cy="12.67" r="0.42" opacity="0.34"/><circle class="t1" cx="487.91" cy="7.78" r="0.42" opacity="0.51"/><circle class="t3" cx="374.41" cy="36.3" r="0.35" opacity="0.80"/><circle class="t2" cx="370.7" cy="42.01" r="1.14" opacity="0.42"/><circle class="t2" cx="506.35" cy="16.07" r="0.45" opacity="0.31"/><circle class="t3" cx="732.16" cy="24.25" r="0.35" opacity="0.43"/><circle class="t1" cx="714.73" cy="38.9" r="0.42" opacity="0.34"/><circle cx="475.17" cy="34.61" r="1.08" opacity="0.44"/><circle class="t1" cx="208.23" cy="52.63" r="1.35" opacity="0.51"/><circle cx="68.84" cy="49.39" r="1.21" opacity="0.25"/><circle cx="460.34" cy="63.54" r="0.47" opacity="0.63"/><circle class="t3" cx="398.41" cy="59.53" r="0.47" opacity="0.83"/><circle class="t2" cx="714.26" cy="1.05" r="0.63" opacity="0.64"/><circle cx="191.04" cy="15.42" r="0.38" opacity="0.69"/><circle class="t1" cx="587.25" cy="11.98" r="0.72" opacity="0.39"/><circle class="t1" cx="223.6" cy="34.06" r="0.35" opacity="0.28"/><circle class="t2" cx="823.77" cy="8.71" r="0.36" opacity="0.66"/><circle cx="7.53" cy="47.1" r="1.25" opacity="0.58"/><circle class="t2" cx="303.5" cy="60.95" r="0.8" opacity="0.47"/></g></g><rect x="0.5" y="0.5" width="879" height="63" rx="13.5" fill="none" stroke="rgba(196,181,253,0.12)"/><g fill="#6e6987"><g transform="translate(40 37) scale(0.01300 -0.01300)"><use href="#mono400-269" x="0"/><use href="#mono400-125" x="1200"/><use href="#mono400-123" x="1800"/><use href="#mono400-125" x="2400"/><use href="#mono400-129" x="3000"/></g></g><g fill="#ece9f7"><g transform="translate(94.6 37) scale(0.01300 -0.01300)"><use href="#mono400-29" x="0"/><use href="#mono400-80" x="600"/><use href="#mono400-90" x="1200"/><use href="#mono400-90" x="1800"/><use href="#mono400-59" x="2400"/><use href="#mono400-31" x="3000"/><use href="#mono400-72" x="3600"/><use href="#mono400-72" x="4200"/><use href="#mono400-102" x="4800"/></g></g><g fill="#6e6987"><g transform="translate(590.4 37) scale(0.01300 -0.01300)"><use href="#mono400-78" x="0"/><use href="#mono400-80" x="600"/><use href="#mono400-108" x="1200"/><use href="#mono400-79" x="1800"/><use href="#mono400-109" x="2400"/><use href="#mono400-67" x="3000"/><use href="#mono400-149" x="4200"/><use href="#mono400-70" x="5400"/><use href="#mono400-80" x="6000"/><use href="#mono400-106" x="6600"/><use href="#mono400-68" x="7200"/><use href="#mono400-94" x="7800"/><use href="#mono400-105" x="8400"/><use href="#mono400-70" x="9000"/><use href="#mono400-149" x="10200"/><use href="#mono400-89" x="11400"/><use href="#mono400-80" x="12000"/><use href="#mono400-90" x="12600"/><use href="#mono400-90" x="13200"/><use href="#mono400-59" x="13800"/><use href="#mono400-91" x="14400"/><use href="#mono400-72" x="15000"/><use href="#mono400-72" x="15600"/><use href="#mono400-102" x="16200"/><use href="#mono400-140" x="16800"/><use href="#mono400-68" x="17400"/><use href="#mono400-94" x="18000"/><use href="#mono400-91" x="18600"/></g></g></svg>