<svg xmlns="http://www.w3.org/2000/svg" width="880" height="494" viewBox="0 0 880 494" role="img" aria-label="hero"><style>.t1{animation:tw 3.2s ease-in-out infinite alternate} .t2{animation:tw 4.6s ease-in-out -1.7s infinite alternate} .t3{animation:tw 6.1s ease-in-out -3.3s infinite alternate} @keyframes tw{from{opacity:.08}} .rv{animation:rv .8s cubic-bezier(.2,.7,.2,1) both} @keyframes rv{from{opacity:0;transform:translateY(10px)}} @media (prefers-reduced-motion:reduce){*{animation:none!important}} .caret{animation:blink 1.1s steps(1) infinite}@keyframes blink{50%{opacity:0}}</style><defs><linearGradient id="accent" x1="0" y1="0.4" x2="1" y2="0.6"><stop offset="0" stop-color="#a78bfa"/><stop offset="1" stop-color="#f472b6"/></linearGradient><radialGradient id="glowV" cx="0.85" cy="0" r="0.6"><stop offset="0" stop-color="#7c3aed" stop-opacity="0.22"/><stop offset="0.7" stop-color="#7c3aed" stop-opacity="0"/></radialGradient><radialGradient id="glowP" cx="0" cy="1" r="0.5"><stop offset="0" stop-color="#ec4899" stop-opacity="0.12"/><stop offset="0.7" stop-color="#ec4899" stop-opacity="0"/></radialGradient><radialGradient id="glowC" cx="0.3" cy="0.3" r="0.4"><stop offset="0" stop-color="#67e8f9" stop-opacity="0.05"/><stop offset="0.7" stop-color="#67e8f9" stop-opacity="0"/></radialGradient><path id="mono500-258" d="M58 255V329Q58 390 96 426Q133 462 195 462Q234 462 260 449Q287 436 306 416Q324 396 338 376Q353 356 368 342Q384 329 404 329Q425 329 436 342Q447 355 447 379V450H542V376Q542 316 505 280Q468 243 405 243Q366 243 340 256Q313 269 294 289Q276 309 262 329Q247 349 232 362Q216 376 196 376Q175 376 164 364Q153 351 153 326V255Z"/><path id="mono500-153" d="M68 -110 420 830H532L180 -110Z"/><path id="mono500-89" d="M87 0V730H195V329H292L438 550H560L385 286L563 0H439L292 236H195V0Z"/><path id="mono500-80" d="M81 0V98H274V452H106V550H379V98H556V0ZM316 645Q281 645 260 664Q239 682 239 713Q239 745 260 764Q281 782 316 782Q351 782 372 764Q393 745 393 713Q393 682 372 664Q351 645 316 645Z"/><path id="mono500-90" d="M379 0Q328 0 290 20Q252 41 230 79Q209 117 209 167V632H29V730H317V167Q317 135 335 116Q353 98 384 98H554V0Z"/><path id="mono500-59" d="M245 -10Q159 -10 110 34Q60 79 60 156Q60 234 112 278Q165 323 257 323H410V374Q410 419 382 444Q354 469 303 469Q258 469 228 450Q198 430 193 398H87Q96 472 156 516Q215 560 306 560Q404 560 461 510Q518 461 518 376V0H413V101H395L413 121Q413 61 367 26Q321 -10 245 -10ZM277 73Q335 73 372 102Q410 132 410 178V250H259Q217 250 192 227Q168 204 168 164Q168 122 197 98Q226 73 277 73Z"/><path id="mono500-91" d="M59 0V550H149V480H169L154 459Q154 505 179 532Q204 560 246 560Q291 560 316 525Q340 490 340 429L316 480H354L338 459Q338 505 364 532Q389 560 432 560Q483 560 512 522Q541 483 541 419V0H445V416Q445 447 432 464Q418 481 393 481Q368 481 354 464Q341 448 341 417V0H260V416Q260 448 246 464Q232 481 206 481Q181 481 168 464Q156 448 156 417V0Z"/><path id="mono500-72" d="M300 -10Q233 -10 182 16Q132 43 105 91Q78 139 78 203V347Q78 412 105 460Q132 507 182 534Q233 560 300 560Q368 560 418 534Q468 507 495 460Q522 412 522 347V249H182V203Q182 142 212 110Q243 78 301 78Q348 78 377 94Q406 111 413 143H520Q508 73 448 32Q388 -10 300 -10ZM418 314V348Q418 408 388 441Q358 474 300 474Q243 474 212 441Q182 408 182 347V322L426 323Z"/><path id="mono500-102" d="M84 -180V550H191V445H214L191 420Q191 485 232 522Q272 560 340 560Q423 560 472 504Q522 449 522 353V198Q522 134 500 88Q477 41 436 16Q396 -10 340 -10Q273 -10 232 28Q191 65 191 130L214 105H189L192 -23V-180ZM303 84Q356 84 386 114Q415 145 415 203V347Q415 405 386 436Q356 466 303 466Q252 466 222 434Q192 403 192 347V203Q192 147 222 116Q252 84 303 84Z"/><path id="mono400-89" d="M95 0V730H185V323H291L451 550H554L369 288L557 0H452L292 245H185V0Z"/><path id="mono400-80" d="M85 0V82H280V468H110V550H370V82H555V0ZM315 649Q282 649 263 666Q244 683 244 712Q244 742 263 760Q282 777 315 777Q348 777 367 760Q386 742 386 712Q386 683 367 666Q348 649 315 649Z"/><path id="mono400-90" d="M375 0Q327 0 291 19Q255 38 235 73Q215 108 215 155V648H30V730H305V155Q305 121 324 102Q343 82 375 82H550V0Z"/><path id="mono400-59" d="M252 -10Q165 -10 115 34Q65 79 65 155Q65 232 115 276Q165 320 250 320H420V375Q420 426 390 454Q359 481 303 481Q254 481 221 460Q188 440 183 405H93Q102 476 160 518Q218 560 305 560Q400 560 455 511Q510 462 510 378V0H422V105H407L422 120Q422 60 376 25Q329 -10 252 -10ZM274 61Q338 61 379 93Q420 125 420 175V253H252Q207 253 181 228Q155 203 155 160Q155 114 186 88Q218 61 274 61Z"/><path id="mono400-91" d="M66 0V550H145V484H163L149 460Q149 506 174 533Q198 560 240 560Q286 560 311 526Q336 492 336 430L309 484H351L332 460Q332 506 358 533Q383 560 425 560Q477 560 506 521Q534 482 534 418V0H451V419Q451 453 436 472Q422 491 394 491Q367 491 352 472Q336 454 336 420V0H264V419Q264 454 248 472Q233 491 205 491Q177 491 163 472Q149 454 149 420V0Z"/><path id="mono400-72" d="M300 -10Q235 -10 186 16Q138 42 112 90Q85 137 85 200V350Q85 414 112 461Q138 508 186 534Q235 560 300 560Q365 560 414 534Q462 508 488 461Q515 414 515 350V253H173V200Q173 135 206 100Q239 66 300 66Q352 66 384 84Q416 103 423 140H513Q504 71 446 30Q387 -10 300 -10ZM427 313V350Q427 415 394 450Q362 485 300 485Q239 485 206 450Q173 415 173 350V321H434Z"/><path id="mono400-102" d="M92 -180V550H182V445H200L182 424Q182 487 224 524Q265 560 333 560Q416 560 466 506Q515 451 515 356V195Q515 132 492 86Q470 40 430 15Q389 -10 333 -10Q266 -10 224 27Q182 64 182 126L200 105H180L182 -20V-180ZM303 68Q360 68 392 102Q425 136 425 200V350Q425 414 392 448Q360 482 303 482Q248 482 215 447Q182 412 182 350V200Q182 138 215 103Q248 68 303 68Z"/><path id="mono400-140" d="M300 -10Q262 -10 240 12Q217 34 217 71Q217 110 240 133Q262 156 300 156Q338 156 360 133Q383 110 383 71Q383 34 360 12Q338 -10 300 -10Z"/><path id="mono400-68" d="M304 -10Q238 -10 188 15Q139 40 112 88Q85 135 85 200V350Q85 416 112 463Q139 510 188 535Q238 560 304 560Q399 560 457 509Q515 458 518 370H428Q425 423 392 452Q360 480 304 480Q245 480 210 446Q175 413 175 351V200Q175 138 210 104Q245 70 304 70Q360 70 392 99Q425 128 428 180H518Q515 92 457 41Q399 -10 304 -10Z"/><path id="mono400-94" d="M300 -8Q234 -8 186 17Q138 42 112 90Q85 137 85 202V348Q85 414 112 461Q138 508 186 533Q234 558 300 558Q366 558 414 533Q462 508 488 461Q515 414 515 349V202Q515 137 488 90Q462 42 414 17Q366 -8 300 -8ZM300 72Q359 72 392 105Q425 138 425 202V348Q425 412 392 445Q359 478 300 478Q242 478 208 445Q175 412 175 348V202Q175 138 208 105Q242 72 300 72Z"/><path id="mono400-245" d="M275 -140V-9Q181 -1 128 52Q74 104 72 190H162Q162 141 192 110Q221 79 275 72V334L248 342Q173 365 132 419Q92 473 92 546Q92 626 142 678Q191 730 275 738V870H335V739Q418 731 468 679Q518 627 519 545H429Q429 592 404 622Q380 651 335 658V410L375 397Q448 374 488 319Q528 264 528 190Q528 108 476 54Q423 0 335 -9V-140ZM335 72Q384 80 411 110Q438 140 438 188Q438 232 414 265Q391 298 347 311L335 315ZM275 389V658Q231 651 206 624Q182 597 182 554Q182 502 214 466Q246 431 306 422Z"/><path id="mono400-115" d="M123 0 35 550H115L170 160Q173 138 176 112Q180 87 182 70Q184 87 188 112Q193 138 196 160L257 550H343L404 160Q407 138 412 112Q416 87 418 70Q420 87 424 112Q429 138 432 160L489 550H565L473 0H374L315 380Q311 408 306 436Q301 464 299 480Q297 464 293 436Q289 408 284 380L222 0Z"/><path id="mono400-79" d="M92 0V730H182V550V445H201L182 424Q182 489 221 524Q260 560 329 560Q412 560 461 509Q510 458 510 370V0H420V360Q420 419 388 452Q357 484 303 484Q247 484 214 449Q182 414 182 350V0Z"/><path id="sans500-11" d="M73 0V700H181V400H475V700H583V0H475V302H181V0Z"/><path id="sans500-38" d="M76 0V493H179V0ZM128 560Q98 560 78 580Q57 599 57 630Q57 661 78 680Q98 700 128 700Q159 700 179 680Q199 661 199 630Q199 599 179 580Q159 560 128 560Z"/><path id="sans500-85" d="M77 -136V-77H111Q152 -77 152 -36V-4H137Q102 -4 79 17Q56 38 56 70Q56 105 79 126Q102 148 137 148Q172 148 194 126Q217 103 217 67V-37Q217 -136 118 -136Z"/><path id="sans500-12" d="M73 0V700H181V0Z"/><path id="sans500-79" d="M77 430V489H111Q152 489 152 530V562H137Q102 562 79 583Q56 604 56 636Q56 671 79 692Q102 714 137 714Q172 714 194 692Q217 669 217 633V529Q217 430 118 430Z"/><path id="sans500-42" d="M76 0V493H177V435H193Q207 461 238 481Q269 501 322 501Q377 501 410 478Q444 456 461 421H477Q494 455 526 478Q559 501 619 501Q667 501 704 482Q741 462 763 424Q785 385 785 328V0H682V320Q682 365 658 390Q633 414 588 414Q540 414 511 383Q482 352 482 294V0H379V320Q379 365 354 390Q330 414 285 414Q237 414 208 383Q179 352 179 294V0Z"/><path id="sans700-14" d="M66 0V700H198V422H216L443 700H612L320 355L622 0H448L216 284H198V0Z"/><path id="sans700-38" d="M70 0V496H196V0ZM133 554Q99 554 76 576Q52 598 52 634Q52 670 76 692Q99 714 133 714Q168 714 191 692Q214 670 214 634Q214 598 191 576Q168 554 133 554Z"/><path id="sans700-41" d="M70 0V700H196V0Z"/><path id="sans700-30" d="M224 -14Q171 -14 129 4Q87 23 62 58Q38 94 38 145Q38 196 62 230Q87 265 130 282Q174 300 230 300H366V328Q366 363 344 386Q322 408 274 408Q227 408 204 386Q181 365 174 331L58 370Q70 408 96 440Q123 471 168 490Q212 510 276 510Q374 510 431 461Q488 412 488 319V134Q488 104 516 104H556V0H472Q435 0 411 18Q387 36 387 66V67H368Q364 55 350 36Q336 16 306 1Q276 -14 224 -14ZM246 88Q299 88 332 118Q366 147 366 196V206H239Q204 206 184 191Q164 176 164 149Q164 122 185 105Q206 88 246 88Z"/><path id="sans700-16" d="M66 0V700H311L432 90H450L571 700H816V0H688V603H670L550 0H332L212 603H194V0Z"/><path id="sans700-34" d="M296 -14Q222 -14 166 18Q109 49 78 106Q46 164 46 242V254Q46 332 77 390Q108 447 164 478Q220 510 294 510Q367 510 421 478Q475 445 505 388Q535 330 535 254V211H174Q176 160 212 128Q248 96 300 96Q353 96 378 119Q403 142 416 170L519 116Q505 90 478 60Q452 29 408 8Q364 -14 296 -14ZM175 305H407Q403 348 372 374Q342 400 293 400Q242 400 212 374Q182 348 175 305Z"/><path id="sans700-45" d="M70 -200V496H194V436H212Q229 465 265 488Q301 510 368 510Q428 510 479 480Q530 451 561 394Q592 337 592 256V240Q592 159 561 102Q530 45 479 16Q428 -14 368 -14Q323 -14 292 -4Q262 7 244 24Q225 40 214 57H196V-200ZM330 96Q389 96 428 134Q466 171 466 243V253Q466 325 427 362Q388 400 330 400Q272 400 233 362Q194 325 194 253V243Q194 171 233 134Q272 96 330 96Z"/><path id="sans700-84" d="M150 -14Q109 -14 82 12Q54 39 54 81Q54 123 82 150Q109 176 150 176Q190 176 217 150Q244 123 244 81Q244 39 217 12Q190 -14 150 -14Z"/><path id="mono400-255" d="M85 65V152L395 304Q414 313 430 320Q447 326 455 328Q446 330 429 336Q412 343 395 352L85 505V595L515 380V280Z"/><path id="mono400-46" d="M304 -10Q232 -10 180 14Q129 38 101 83Q73 128 72 190H162Q162 135 200 103Q237 71 304 71Q367 71 402 102Q438 133 438 188Q438 232 414 265Q391 298 347 311L248 342Q173 365 132 419Q92 473 92 546Q92 605 118 648Q145 692 193 716Q241 741 306 741Q402 741 460 688Q518 634 519 545H429Q429 599 396 630Q364 660 305 660Q247 660 214 632Q182 604 182 554Q182 509 206 476Q230 443 275 429L375 397Q448 374 488 319Q528 264 528 190Q528 130 500 85Q472 40 422 15Q371 -10 304 -10Z"/><path id="mono400-77" d="M220 0V413H60V495H220V590Q220 655 261 692Q302 730 374 730H535V648H374Q343 648 326 634Q310 619 310 590V495H535V413H310V0Z"/><path id="mono400-108" d="M360 0Q289 0 250 38Q210 76 210 145V468H55V550H210V705H300V550H520V468H300V145Q300 82 360 82H510V0Z"/><path id="mono400-105" d="M111 0V550H199V445H220L191 380Q191 469 230 514Q268 560 344 560Q431 560 482 506Q534 451 534 358V325H444V350Q444 415 412 450Q381 484 323 484Q266 484 234 449Q201 414 201 350V0Z"/><path id="mono400-13" d="M92 0V730H281Q352 730 404 703Q455 676 484 627Q512 578 512 511V220Q512 153 484 104Q455 54 404 27Q352 0 281 0ZM182 80H281Q347 80 384 117Q422 154 422 220V511Q422 576 384 613Q347 650 281 650H182Z"/><path id="mono400-114" d="M239 0 55 550H147L269 180Q280 147 289 116Q298 86 302 69Q307 86 316 116Q325 147 335 180L454 550H545L361 0Z"/><path id="mono400-42" d="M92 0V730H327Q395 730 445 704Q495 677 522 629Q550 581 550 515Q550 450 522 402Q495 353 445 326Q395 300 327 300H182V0ZM182 381H327Q386 381 422 418Q457 454 457 515Q457 577 422 613Q386 649 327 649H182Z"/><path id="mono400-106" d="M283 -8Q227 -8 186 10Q144 27 120 59Q95 91 90 135H180Q186 106 212 89Q239 72 283 72H325Q378 72 404 94Q430 115 430 151Q430 186 406 206Q383 227 337 234L263 246Q182 260 142 296Q103 333 103 403Q103 477 150 518Q197 558 291 558H329Q408 558 456 521Q504 484 514 421H424Q418 447 394 462Q370 478 329 478H291Q240 478 216 459Q193 440 193 402Q193 368 213 352Q233 336 276 329L350 317Q439 303 480 265Q520 227 520 155Q520 79 472 36Q423 -8 325 -8Z"/><path id="mono400-1" d="M50 0 240 730H361L550 0H459L411 194H190L142 0ZM208 270H392L336 495Q320 559 311 602Q302 645 300 658Q298 645 289 602Q280 559 264 496Z"/><path id="mono400-109" d="M299 -10Q204 -10 147 46Q90 103 90 200V550H180V200Q180 138 212 104Q244 69 299 69Q355 69 388 104Q420 138 420 200V550H510V200Q510 103 452 46Q394 -10 299 -10Z"/><path id="mono400-92" d="M92 0V550H182V445H201L182 424Q182 489 221 524Q260 560 329 560Q412 560 461 509Q510 458 510 370V0H420V360Q420 419 388 450Q357 482 303 482Q247 482 214 448Q182 414 182 350V0Z"/><path id="mono400-15" d="M100 0V730H520V648H189V422H485V341H189V82H520V0Z"/><path id="mono400-78" d="M161 -180V-98H336Q378 -98 398 -79Q417 -60 417 -20V50L419 150H401L418 165Q418 105 378 70Q338 35 271 35Q186 35 137 90Q88 146 88 240V356Q88 450 137 505Q186 560 271 560Q338 560 378 525Q418 490 418 430L401 445H418V550H507V-20Q507 -94 462 -137Q416 -180 335 -180ZM298 113Q354 113 386 148Q418 183 418 245V350Q418 412 386 447Q354 482 298 482Q241 482 210 448Q178 414 178 350V245Q178 181 210 147Q241 113 298 113Z"/><path id="mono400-23" d="M105 0V82H254V648H105V730H495V648H346V82H495V0Z"/><path id="sans400-12" d="M80 0V700H164V0Z"/><path id="sans400-31" d="M354 -14Q278 -14 236 15Q193 44 174 81H160V0H83V700H162V412H176Q188 435 210 456Q232 476 268 490Q303 503 354 503Q418 503 470 472Q523 442 554 386Q585 329 585 251V238Q585 160 554 103Q522 46 470 16Q417 -14 354 -14ZM333 56Q409 56 456 104Q504 153 504 240V249Q504 336 456 384Q409 433 333 433Q258 433 210 384Q161 336 161 249V240Q161 153 210 104Q258 56 333 56Z"/><path id="sans400-50" d="M270 -9Q217 -9 172 14Q128 37 102 82Q77 128 77 193V489H156V199Q156 126 192 93Q229 60 291 60Q361 60 406 106Q451 152 451 243V489H530V0H453V83H439Q423 48 384 20Q345 -9 270 -9Z"/><path id="sans400-38" d="M83 0V489H162V0ZM123 565Q97 565 80 582Q62 599 62 625Q62 652 80 669Q97 686 123 686Q149 686 166 669Q183 652 183 625Q183 599 166 582Q149 565 123 565Z"/><path id="sans400-41" d="M83 0V700H162V0Z"/><path id="sans400-33" d="M290 -14Q227 -14 174 16Q121 46 90 103Q59 160 59 238V251Q59 329 90 386Q121 442 174 472Q226 503 290 503Q341 503 376 490Q412 476 434 456Q456 435 468 412H482V700H561V0H484V81H470Q450 44 408 15Q366 -14 290 -14ZM311 56Q387 56 434 104Q482 153 482 240V249Q482 336 434 384Q387 433 311 433Q236 433 188 384Q139 336 139 249V240Q139 153 188 104Q236 56 311 56Z"/><path id="sans400-49" d="M263 0Q221 0 198 23Q176 46 176 86V420H29V489H176V663H255V489H415V420H255V98Q255 68 284 68H393V0Z"/><path id="sans400-44" d="M309 -14Q235 -14 178 17Q122 48 90 104Q59 161 59 238V251Q59 327 90 384Q122 441 178 472Q235 503 309 503Q383 503 440 472Q496 441 528 384Q559 327 559 251V238Q559 161 528 104Q496 48 440 17Q383 -14 309 -14ZM309 57Q387 57 434 106Q480 156 480 240V249Q480 333 434 382Q387 432 309 432Q232 432 185 382Q138 333 138 249V240Q138 156 185 106Q232 57 309 57Z"/><path id="sans400-48" d="M280 -14Q189 -14 126 28Q64 70 51 161L126 178Q134 130 156 102Q178 75 210 64Q243 52 280 52Q335 52 367 74Q399 96 399 133Q399 171 368 186Q338 202 285 212L244 219Q197 227 158 244Q119 261 96 290Q73 319 73 363Q73 429 124 466Q175 503 259 503Q342 503 394 466Q445 428 460 360L386 341Q377 394 343 416Q309 437 259 437Q209 437 180 418Q151 400 151 364Q151 329 178 312Q206 296 252 288L293 281Q345 272 386 256Q428 241 452 212Q477 183 477 136Q477 64 424 25Q370 -14 280 -14Z"/><path id="sans400-37" d="M83 0V700H162V411H176Q186 433 206 452Q227 472 260 485Q292 498 342 498Q397 498 440 474Q484 451 510 406Q536 362 536 296V0H457V290Q457 363 420 396Q384 429 322 429Q251 429 206 383Q162 337 162 246V0Z"/><path id="sans400-30" d="M233 -14Q182 -14 140 4Q98 22 74 56Q50 90 50 139Q50 189 74 222Q98 254 140 270Q182 287 234 287H399V323Q399 375 368 405Q338 435 278 435Q219 435 186 406Q153 378 141 330L67 354Q79 395 105 428Q131 462 174 482Q218 503 279 503Q373 503 425 454Q477 406 477 318V97Q477 67 505 67H550V0H481Q448 0 428 18Q408 37 408 68V73H396Q385 54 366 34Q348 13 316 0Q284 -14 233 -14ZM242 54Q312 54 356 96Q399 137 399 212V223H237Q190 223 160 202Q129 182 129 141Q129 100 160 77Q192 54 242 54Z"/><path id="sans400-34" d="M307 -14Q233 -14 177 18Q121 49 90 106Q59 163 59 238V250Q59 326 90 383Q121 440 176 472Q231 503 302 503Q371 503 424 474Q477 444 507 389Q537 334 537 260V224H138Q141 145 189 100Q237 56 309 56Q372 56 406 85Q440 114 458 154L526 121Q511 90 484 59Q458 28 416 7Q373 -14 307 -14ZM139 289H457Q453 357 410 395Q368 433 302 433Q235 433 192 395Q149 357 139 289Z"/><path id="sans400-85" d="M75 -125V-75H104Q140 -75 140 -39V-7H126Q97 -7 78 11Q58 29 58 56Q58 85 78 103Q97 121 126 121Q155 121 174 102Q193 83 193 54V-39Q193 -125 107 -125Z"/><path id="sans400-47" d="M83 0V489H160V429H174Q187 461 214 476Q241 491 285 491H343V419H280Q227 419 194 390Q162 360 162 298V0Z"/><path id="sans400-43" d="M83 0V489H160V406H174Q190 441 228 470Q267 498 342 498Q397 498 440 475Q484 452 510 407Q536 362 536 296V0H457V290Q457 363 420 396Q384 429 322 429Q251 429 206 383Q162 337 162 246V0Z"/><path id="sans400-42" d="M83 0V489H160V428H174Q188 454 220 476Q252 498 310 498Q367 498 402 473Q438 448 454 412H468Q485 448 520 473Q554 498 616 498Q665 498 702 478Q739 458 760 420Q782 383 782 331V0H703V324Q703 373 674 402Q646 430 595 430Q541 430 506 395Q472 360 472 294V0H393V324Q393 373 364 402Q336 430 285 430Q231 430 196 395Q162 360 162 294V0Z"/><path id="sans400-86" d="M126 -14Q97 -14 78 5Q58 24 58 54Q58 84 78 103Q97 122 126 122Q156 122 175 103Q194 84 194 54Q194 24 175 5Q156 -14 126 -14ZM126 367Q97 367 78 386Q58 405 58 435Q58 465 78 484Q97 503 126 503Q156 503 175 484Q194 465 194 435Q194 405 175 386Q156 367 126 367Z"/><path id="sans400-32" d="M308 -14Q237 -14 180 16Q124 47 92 104Q59 161 59 239V250Q59 329 92 386Q124 442 180 472Q237 503 308 503Q378 503 428 477Q477 451 506 408Q534 365 542 316L465 300Q460 336 442 366Q423 396 390 414Q357 432 309 432Q260 432 222 410Q183 388 160 347Q138 306 138 249V240Q138 183 160 142Q183 101 222 79Q260 57 309 57Q382 57 420 95Q459 133 468 189L546 172Q535 124 506 81Q477 38 428 12Q378 -14 308 -14Z"/><path id="sans400-45" d="M83 -200V489H160V408H174Q193 445 236 474Q278 503 354 503Q417 503 470 472Q522 442 554 386Q585 330 585 251V238Q585 160 554 103Q523 46 470 16Q418 -14 354 -14Q303 -14 268 0Q232 13 210 34Q188 55 176 77H162V-200ZM333 56Q409 56 456 104Q504 153 504 240V249Q504 336 456 384Q409 433 333 433Q258 433 210 384Q161 336 161 249V240Q161 153 210 104Q258 56 333 56Z"/><path id="sans400-51" d="M207 0 32 489H116L263 59H277L424 489H508L333 0Z"/><path id="sans400-36" d="M59 242V256Q59 333 90 388Q121 443 174 473Q227 503 290 503Q367 503 408 474Q450 444 470 408H484V489H559V-114Q559 -154 537 -177Q515 -200 473 -200H141V-130H452Q482 -130 482 -100V86H468Q456 64 434 43Q412 22 377 8Q342 -5 290 -5Q227 -5 174 25Q121 55 90 110Q59 166 59 242ZM311 65Q387 65 434 113Q482 161 482 245V253Q482 338 434 386Q387 433 311 433Q236 433 188 386Q139 338 139 253V245Q139 161 188 113Q236 65 311 65Z"/><path id="sans400-19" d="M80 0V700H348Q411 700 460 676Q510 651 539 606Q568 561 568 497V484Q568 421 538 376Q509 330 459 306Q409 282 348 282H164V0ZM164 358H339Q406 358 445 392Q484 425 484 486V496Q484 557 446 590Q407 624 339 624H164Z"/><path id="sans400-54" d="M142 -200V-130H422Q451 -130 451 -100V78H437Q427 57 406 36Q386 16 353 4Q320 -9 270 -9Q217 -9 172 14Q128 37 102 82Q77 127 77 192V489H156V198Q156 126 192 93Q229 60 291 60Q361 60 406 106Q451 152 451 243V489H530V-114Q530 -154 508 -177Q485 -200 442 -200Z"/><path id="sans400-40" d="M83 0V700H162V288H176L400 489H510L239 251L518 0H409L176 213H162V0Z"/><path id="sans400-52" d="M151 0 53 489H133L214 53H228L335 489H466L573 53H587L668 489H748L650 0H515L407 436H394L286 0Z"/><path id="sans400-8" d="M80 0V700H511V624H164V390H483V314H164V76H516V0Z"/><path id="sans400-23" d="M252 0V624H27V700H561V624H336V0Z"/><path id="sans400-84" d="M126 -14Q97 -14 78 5Q58 24 58 54Q58 84 78 103Q97 122 126 122Q156 122 175 103Q194 84 194 54Q194 24 175 5Q156 -14 126 -14Z"/><clipPath id="c1"><rect x="0" y="0" width="880" height="494" rx="14"/></clipPath><mask id="m2" maskUnits="userSpaceOnUse" x="33" y="163.3" width="409.47" height="131.6"><g fill="#fff"><g transform="translate(37 262) scale(0.09400 -0.09400)"><use href="#sans700-14" x="0"/><use href="#sans700-38" x="581"/><use href="#sans700-41" x="802"/><use href="#sans700-41" x="1023"/><use href="#sans700-30" x="1244"/><use href="#sans700-16" x="1777"/><use href="#sans700-34" x="2614"/><use href="#sans700-34" x="3146"/><use href="#sans700-45" x="3678"/></g></g></mask><clipPath id="r3"><rect x="64.6" y="297" height="31.5" width="0"><animate attributeName="width" dur="12.69s" repeatCount="indefinite" calcMode="discrete" keyTimes="0.0000;0.0473;0.0516;0.0559;0.0603;0.0646;0.0689;0.0733;0.0776;0.0819;0.0863;0.0906;0.0949;0.0993;0.1036;0.1079;0.1123;0.1166;0.1209;0.1253;0.2714;0.2736;0.2758;0.2780;0.2802;0.2824;0.2846;0.2869;0.2891;0.2913;0.2935;0.2957;0.2979;0.3001;0.3023;0.3045;0.3067;0.3089" values="0;0;12.6;25.2;37.8;50.4;63;75.6;88.2;100.8;113.4;126;138.6;151.2;163.8;176.4;189;201.6;214.2;226.8;214.2;201.6;189;176.4;163.8;151.2;138.6;126;113.4;100.8;88.2;75.6;63;50.4;37.8;25.2;12.6;0"/></rect></clipPath><clipPath id="r4"><rect x="64.6" y="297" height="31.5" width="0"><animate attributeName="width" dur="12.69s" repeatCount="indefinite" calcMode="discrete" keyTimes="0.0000;0.3387;0.3430;0.3474;0.3517;0.3560;0.3604;0.3647;0.3690;0.3734;0.3777;0.3820;0.3864;0.3907;0.3950;0.3994;0.4037;0.4080;0.4124;0.4167;0.4210;0.4254;0.4297;0.4340;0.4384;0.4427;0.4470;0.4514;0.4557;0.6018;0.6040;0.6062;0.6084;0.6107;0.6129;0.6151;0.6173;0.6195;0.6217;0.6239;0.6261;0.6283;0.6305;0.6327;0.6349;0.6371;0.6393;0.6415;0.6437;0.6459;0.6482;0.6504;0.6526;0.6548;0.6570;0.6592" values="0;0;12.6;25.2;37.8;50.4;63;75.6;88.2;100.8;113.4;126;138.6;151.2;163.8;176.4;189;201.6;214.2;226.8;239.4;252;264.6;277.2;289.8;302.4;315;327.6;340.2;327.6;315;302.4;289.8;277.2;264.6;252;239.4;226.8;214.2;201.6;189;176.4;163.8;151.2;138.6;126;113.4;100.8;88.2;75.6;63;50.4;37.8;25.2;12.6;0"/></rect></clipPath><clipPath id="r5"><rect x="64.6" y="297" height="31.5" width="0"><animate attributeName="width" dur="12.69s" repeatCount="indefinite" calcMode="discrete" keyTimes="0.0000;0.6890;0.6933;0.6976;0.7020;0.7063;0.7106;0.7150;0.7193;0.7236;0.7280;0.7323;0.7366;0.7410;0.7453;0.7496;0.7540;0.7583;0.7626;0.7670;0.7713;0.7756;0.7800;0.9261;0.9283;0.9305;0.9327;0.9349;0.9371;0.9393;0.9415;0.9437;0.9460;0.9482;0.9504;0.9526;0.9548;0.9570;0.9592;0.9614;0.9636;0.9658;0.9680;0.9702" values="0;0;12.6;25.2;37.8;50.4;63;75.6;88.2;100.8;113.4;126;138.6;151.2;163.8;176.4;189;201.6;214.2;226.8;239.4;252;264.6;252;239.4;226.8;214.2;201.6;189;176.4;163.8;151.2;138.6;126;113.4;100.8;88.2;75.6;63;50.4;37.8;25.2;12.6;0"/></rect></clipPath></defs><g clip-path="url(#c1)"><rect x="0" y="0" width="880" height="494" fill="#07060d"/><rect x="0" y="0" width="880" height="494" fill="url(#glowV)"/><rect x="0" y="0" width="880" height="494" fill="url(#glowP)"/><rect x="0" y="0" width="880" height="494" fill="url(#glowC)"/><g fill="#fff"><circle class="t3" cx="122.02" cy="433.54" r="0.35" opacity="0.33"/><circle class="t3" cx="235.79" cy="437.44" r="0.61" opacity="0.60"/><circle class="t1" cx="767.04" cy="241.34" r="1.06" opacity="0.27"/><circle class="t2" cx="797.89" cy="405.27" r="0.4" opacity="0.75"/><circle class="t1" cx="482.18" cy="354.81" r="0.62" opacity="0.46"/><circle class="t1" cx="776.09" cy="447.68" r="0.62" opacity="0.46"/><circle class="t3" cx="393.57" cy="216.37" r="0.35" opacity="0.62"/><circle class="t3" cx="369.75" cy="386.86" r="0.35" opacity="0.49"/><circle class="t2" cx="288.55" cy="149.34" r="0.39" opacity="0.38"/><circle cx="815.17" cy="106.2" r="0.64" opacity="0.34"/><circle class="t2" cx="290.53" cy="233.85" r="0.72" opacity="0.57"/><circle class="t2" cx="306.32" cy="425.18" r="0.53" opacity="0.30"/><circle cx="111.95" cy="2.97" r="1.04" opacity="0.46"/><circle class="t3" cx="588.59" cy="366.61" r="0.85" opacity="0.84"/><circle class="t2" cx="184.43" cy="51.82" r="0.38" opacity="0.37"/><circle cx="612.82" cy="343.63" r="0.59" opacity="0.30"/><circle class="t3" cx="371.81" cy="6.28" r="1.07" opacity="0.71"/><circle class="t2" cx="441.7" cy="432.35" r="1.2" opacity="0.34"/><circle class="t1" cx="433.12" cy="182.82" r="0.66" opacity="0.59"/><circle cx="183.35" cy="69.31" r="0.46" opacity="0.46"/><circle class="t2" cx="33.63" cy="163.79" r="0.35" opacity="0.69"/><circle cx="103.53" cy="87.67" r="0.36" opacity="0.85"/><circle class="t3" cx="764.42" cy="146.41" r="0.81" opacity="0.30"/><circle class="t1" cx="363.9" cy="40.55" r="0.89" opacity="0.64"/><circle cx="559.93" cy="74.14" r="0.69" opacity="0.84"/><circle class="t3" cx="729.56" cy="46.97" r="0.35" opacity="0.50"/><circle class="t3" cx="757.79" cy="168.92" r="0.35" opacity="0.78"/><circle class="t2" cx="674.76" cy="482.05" r="0.35" opacity="0.51"/><circle cx="161.93" cy="316.65" r="0.36" opacity="0.26"/><circle class="t3" cx="102.34" cy="33.33" r="0.37" opacity="0.46"/><circle class="t2" cx="442.64" cy="235.8" r="0.35" opacity="0.57"/><circle cx="842.89" cy="274.11" r="1.26" opacity="0.31"/><circle cx="859.64" cy="246.89" r="0.46" opacity="0.70"/><circle cx="578.1" cy="361.31" r="0.53" opacity="0.50"/><circle class="t2" cx="745.1" cy="384.71" r="0.37" opacity="0.66"/><circle class="t1" cx="167.35" cy="314.08" r="0.36" opacity="0.54"/><circle class="t2" cx="157.85" cy="232.83" r="0.35" opacity="0.47"/><circle class="t3" cx="601.55" cy="53.47" r="0.35" opacity="0.71"/><circle class="t2" cx="146.5" cy="409.77" r="0.59" opacity="0.54"/><circle class="t1" cx="541.59" cy="431.93" r="1.18" opacity="0.65"/><circle class="t2" cx="535.88" cy="140.83" r="0.35" opacity="0.57"/><circle class="t1" cx="179.9" cy="374.36" r="0.62" opacity="0.68"/><circle class="t1" cx="197.15" cy="159.07" r="0.39" opacity="0.34"/><circle class="t3" cx="591.76" cy="24.92" r="0.39" opacity="0.37"/><circle class="t2" cx="401.41" cy="299.66" r="0.38" opacity="0.65"/><circle class="t2" cx="288.43" cy="410.54" r="0.96" opacity="0.51"/><circle class="t1" cx="253.94" cy="230.72" r="0.57" opacity="0.70"/><circle class="t1" cx="621.12" cy="206.5" r="0.37" opacity="0.79"/><circle cx="493.44" cy="178.85" r="1.18" opacity="0.54"/><circle cx="579.32" cy="82.73" r="0.69" opacity="0.37"/><circle class="t1" cx="10.45" cy="80.8" r="0.36" opacity="0.36"/><circle cx="121.54" cy="453.22" r="0.39" opacity="0.48"/><circle class="t1" cx="771.47" cy="313.27" r="0.86" opacity="0.51"/><circle class="t3" cx="814.27" cy="2.91" r="0.46" opacity="0.54"/><circle class="t1" cx="337.13" cy="141" r="0.65" opacity="0.68"/><circle cx="359.33" cy="120.28" r="0.67" opacity="0.58"/><circle class="t3" cx="207.62" cy="464.12" r="0.37" opacity="0.25"/><circle cx="623.96" cy="183.45" r="0.37" opacity="0.73"/><circle cx="746.48" cy="180.68" r="0.35" opacity="0.76"/><circle class="t2" cx="725.2" cy="217.43" r="0.41" opacity="0.50"/><circle cx="484.1" cy="405.82" r="0.56" opacity="0.56"/><circle class="t3" cx="654.61" cy="97.08" r="1.05" opacity="0.62"/><circle class="t3" cx="28.85" cy="442.22" r="0.4" opacity="0.44"/><circle cx="22.44" cy="335.54" r="0.67" opacity="0.82"/><circle cx="859.99" cy="74.58" r="0.46" opacity="0.30"/><circle cx="334.13" cy="309.26" r="1.32" opacity="0.50"/><circle class="t3" cx="332.45" cy="190.99" r="1.11" opacity="0.53"/><circle cx="321.81" cy="239.35" r="0.35" opacity="0.82"/><circle cx="329.62" cy="483.94" r="0.35" opacity="0.60"/><circle class="t3" cx="668.04" cy="322.95" r="0.36" opacity="0.78"/><circle class="t3" cx="873.01" cy="413.04" r="0.57" opacity="0.81"/><circle cx="295.66" cy="232.52" r="0.47" opacity="0.41"/><circle class="t1" cx="238.39" cy="60.72" r="0.37" opacity="0.69"/><circle cx="140.39" cy="26.79" r="1.39" opacity="0.31"/><circle class="t2" cx="754.62" cy="479.24" r="0.35" opacity="0.49"/><circle class="t3" cx="79.06" cy="357.7" r="0.74" opacity="0.67"/><circle cx="422.63" cy="448.43" r="0.36" opacity="0.48"/><circle class="t3" cx="581.94" cy="393.09" r="0.7" opacity="0.51"/><circle cx="518.11" cy="93.61" r="0.56" opacity="0.47"/><circle class="t1" cx="287.62" cy="54.24" r="0.38" opacity="0.36"/><circle class="t2" cx="567.48" cy="216.15" r="0.36" opacity="0.52"/><circle cx="266.09" cy="61.4" r="0.88" opacity="0.53"/><circle cx="413.48" cy="375.52" r="1.12" opacity="0.60"/><circle cx="637.53" cy="47.1" r="1.22" opacity="0.83"/><circle class="t2" cx="468.14" cy="230.3" r="0.59" opacity="0.65"/><circle cx="338.05" cy="159.71" r="0.41" opacity="0.50"/><circle cx="877.48" cy="296.43" r="0.81" opacity="0.40"/><circle cx="793.59" cy="228.27" r="0.41" opacity="0.32"/><circle cx="105.01" cy="274.76" r="0.35" opacity="0.48"/><circle cx="38.77" cy="29.78" r="0.87" opacity="0.53"/><circle class="t3" cx="636.61" cy="418.14" r="0.85" opacity="0.75"/><circle cx="506.14" cy="20.7" r="0.5" opacity="0.41"/><circle class="t2" cx="483.29" cy="227.43" r="0.98" opacity="0.44"/><circle cx="386.08" cy="226.33" r="0.47" opacity="0.56"/><circle class="t3" cx="749.74" cy="14.3" r="0.35" opacity="0.64"/><circle cx="405.98" cy="154.6" r="1.07" opacity="0.60"/><circle class="t1" cx="843.99" cy="91.99" r="0.35" opacity="0.31"/><circle class="t3" cx="827.47" cy="185.09" r="0.36" opacity="0.47"/><circle cx="754.4" cy="284.39" r="0.36" opacity="0.36"/><circle cx="457.15" cy="492.42" r="1.04" opacity="0.32"/><circle cx="667.79" cy="300.57" r="0.35" opacity="0.58"/><circle cx="846.39" cy="80.67" r="0.57" opacity="0.71"/><circle class="t2" cx="406.23" cy="5.36" r="1.07" opacity="0.69"/><circle cx="365.14" cy="117.03" r="0.35" opacity="0.50"/><circle class="t2" cx="744.44" cy="29.45" r="1.26" opacity="0.68"/><circle class="t2" cx="534.07" cy="403.13" r="1.34" opacity="0.55"/><circle cx="817.89" cy="311.9" r="0.35" opacity="0.50"/><circle cx="484.84" cy="116.11" r="1.35" opacity="0.38"/><circle cx="759.37" cy="50.18" r="0.35" opacity="0.82"/><circle class="t1" cx="859.69" cy="90.67" r="0.63" opacity="0.44"/><circle cx="864.55" cy="15.41" r="0.39" opacity="0.44"/><circle class="t3" cx="639.81" cy="311.06" r="0.98" opacity="0.50"/><circle class="t2" cx="132.88" cy="286.07" r="0.87" opacity="0.74"/><circle class="t1" cx="679.63" cy="1.56" r="0.93" opacity="0.41"/><circle cx="408.97" cy="407.27" r="0.8" opacity="0.51"/><circle cx="142.04" cy="432.9" r="0.84" opacity="0.70"/><circle class="t2" cx="209.4" cy="298.18" r="0.41" opacity="0.25"/><circle cx="785.68" cy="455.01" r="0.84" opacity="0.54"/><circle class="t2" cx="409.95" cy="352.31" r="0.4" opacity="0.52"/><circle cx="52.96" cy="52.51" r="0.53" opacity="0.30"/><circle class="t1" cx="586.75" cy="441.66" r="0.73" opacity="0.79"/><circle cx="512.15" cy="491.94" r="0.35" opacity="0.35"/><circle class="t3" cx="298.06" cy="13.31" r="0.36" opacity="0.34"/><circle class="t2" cx="834.34" cy="82.93" r="0.35" opacity="0.58"/><circle class="t1" cx="74.55" cy="461.62" r="0.35" opacity="0.41"/><circle cx="449.25" cy="113.38" r="0.37" opacity="0.66"/><circle class="t3" cx="258.58" cy="194.37" r="0.35" opacity="0.59"/><circle class="t3" cx="156.96" cy="79.05" r="1.03" opacity="0.83"/><circle cx="795.52" cy="330.85" r="0.36" opacity="0.45"/><circle class="t3" cx="534.87" cy="2.26" r="0.61" opacity="0.38"/><circle cx="823.46" cy="170.79" r="1.05" opacity="0.62"/><circle class="t1" cx="394.36" cy="468.28" r="0.68" opacity="0.66"/><circle cx="7.6" cy="366.17" r="1.17" opacity="0.33"/><circle class="t2" cx="850.43" cy="153.63" r="0.85" opacity="0.63"/><circle class="t3" cx="95.24" cy="270.39" r="0.98" opacity="0.76"/><circle class="t3" cx="50.71" cy="22.08" r="0.39" opacity="0.65"/><circle cx="636.46" cy="476.33" r="0.35" opacity="0.66"/><circle class="t1" cx="338.72" cy="97.48" r="0.35" opacity="0.34"/><circle cx="595.72" cy="261.78" r="0.38" opacity="0.63"/><circle class="t3" cx="708.54" cy="269.79" r="0.43" opacity="0.68"/><circle class="t3" cx="500.37" cy="53.84" r="0.51" opacity="0.44"/><circle cx="311.03" cy="214.54" r="0.49" opacity="0.62"/><circle class="t1" cx="143.13" cy="214.8" r="0.35" opacity="0.59"/><circle class="t2" cx="527.94" cy="481.24" r="0.42" opacity="0.55"/><circle cx="453.56" cy="361.81" r="0.4" opacity="0.66"/><circle class="t1" cx="281.13" cy="200.41" r="0.35" opacity="0.70"/><circle cx="754.54" cy="453.09" r="0.43" opacity="0.68"/><circle class="t3" cx="556.12" cy="412.42" r="0.42" opacity="0.81"/><circle cx="803.75" cy="57.56" r="1.24" opacity="0.72"/><circle cx="568.65" cy="237.58" r="1.1" opacity="0.51"/></g></g><rect x="0.5" y="0.5" width="879" height="493" rx="13.5" fill="none" stroke="rgba(196,181,253,0.12)"/><g fill="#a78bfa"><g transform="translate(40 50) scale(0.01500 -0.01500)"><use href="#mono500-258" x="0"/><use href="#mono500-153" x="600"/></g></g><g fill="#ece9f7"><g transform="translate(58 50) scale(0.01500 -0.01500)"><use href="#mono500-89" x="0"/><use href="#mono500-80" x="600"/><use href="#mono500-90" x="1200"/><use href="#mono500-90" x="1800"/><use href="#mono500-59" x="2400"/><use href="#mono500-91" x="3000"/><use href="#mono500-72" x="3600"/><use href="#mono500-72" x="4200"/><use href="#mono500-102" x="4800"/></g></g><g fill="#6e6987"><g transform="translate(738.6 50) scale(0.01300 -0.01300)"><use href="#mono400-89" x="0"/><use href="#mono400-80" x="600"/><use href="#mono400-90" x="1200"/><use href="#mono400-90" x="1800"/><use href="#mono400-59" x="2400"/><use href="#mono400-91" x="3000"/><use href="#mono400-72" x="3600"/><use href="#mono400-72" x="4200"/><use href="#mono400-102" x="4800"/><use href="#mono400-140" x="5400"/><use href="#mono400-68" x="6000"/><use href="#mono400-94" x="6600"/><use href="#mono400-91" x="7200"/></g></g><g fill="#f472b6" class="rv" style="animation-delay:0.00s"><g transform="translate(40 118) scale(0.01400 -0.01400)"><use href="#mono400-245" x="0"/></g></g><g fill="#6e6987" class="rv" style="animation-delay:0.00s"><g transform="translate(56.8 118) scale(0.01400 -0.01400)"><use href="#mono400-115" x="0"/><use href="#mono400-79" x="600"/><use href="#mono400-94" x="1200"/><use href="#mono400-59" x="1800"/><use href="#mono400-91" x="2400"/><use href="#mono400-80" x="3000"/></g></g><g fill="#a29db8" class="rv" style="animation-delay:0.07s"><g transform="translate(40 172) scale(0.03800 -0.03800)"><use href="#sans500-11" x="0"/><use href="#sans500-38" x="636"/><use href="#sans500-85" x="872"/><use href="#sans500-12" x="1329"/><use href="#sans500-79" x="1563"/><use href="#sans500-42" x="1816"/></g></g><g class="rv" style="animation-delay:0.14s"><rect x="33" y="163.3" width="409.47" height="131.6" fill="url(#accent)" mask="url(#m2)"/></g><g fill="#ece9f7" class="rv" style="animation-delay:0.14s"><g transform="translate(438.47 262) scale(0.09400 -0.09400)"><use href="#sans700-84" x="0"/></g></g><g fill="#f472b6" class="rv" style="animation-delay:0.21s"><g transform="translate(40 318) scale(0.02100 -0.02100)"><use href="#mono400-255" x="0"/></g></g><g class="rv" style="animation-delay:0.21s"><g fill="#ece9f7" clip-path="url(#r3)"><g transform="translate(64.6 318) scale(0.02100 -0.02100)"><use href="#mono400-46" x="0"/><use href="#mono400-94" x="600"/><use href="#mono400-77" x="1200"/><use href="#mono400-108" x="1800"/><use href="#mono400-115" x="2400"/><use href="#mono400-59" x="3000"/><use href="#mono400-105" x="3600"/><use href="#mono400-72" x="4200"/><use href="#mono400-13" x="5400"/><use href="#mono400-72" x="6000"/><use href="#mono400-114" x="6600"/><use href="#mono400-72" x="7200"/><use href="#mono400-90" x="7800"/><use href="#mono400-94" x="8400"/><use href="#mono400-102" x="9000"/><use href="#mono400-72" x="9600"/><use href="#mono400-105" x="10200"/></g></g><g fill="#ece9f7" clip-path="url(#r4)"><g transform="translate(64.6 318) scale(0.02100 -0.02100)"><use href="#mono400-42" x="0"/><use href="#mono400-105" x="600"/><use href="#mono400-94" x="1200"/><use href="#mono400-68" x="1800"/><use href="#mono400-72" x="2400"/><use href="#mono400-106" x="3000"/><use href="#mono400-106" x="3600"/><use href="#mono400-1" x="4800"/><use href="#mono400-109" x="5400"/><use href="#mono400-108" x="6000"/><use href="#mono400-94" x="6600"/><use href="#mono400-91" x="7200"/><use href="#mono400-59" x="7800"/><use href="#mono400-108" x="8400"/><use href="#mono400-80" x="9000"/><use href="#mono400-94" x="9600"/><use href="#mono400-92" x="10200"/><use href="#mono400-15" x="11400"/><use href="#mono400-92" x="12000"/><use href="#mono400-78" x="12600"/><use href="#mono400-80" x="13200"/><use href="#mono400-92" x="13800"/><use href="#mono400-72" x="14400"/><use href="#mono400-72" x="15000"/><use href="#mono400-105" x="15600"/></g></g><g fill="#ece9f7" clip-path="url(#r5)"><g transform="translate(64.6 318) scale(0.02100 -0.02100)"><use href="#mono400-1" x="0"/><use href="#mono400-23" x="600"/><use href="#mono400-46" x="1800"/><use href="#mono400-94" x="2400"/><use href="#mono400-90" x="3000"/><use href="#mono400-109" x="3600"/><use href="#mono400-108" x="4200"/><use href="#mono400-80" x="4800"/><use href="#mono400-94" x="5400"/><use href="#mono400-92" x="6000"/><use href="#mono400-106" x="6600"/><use href="#mono400-13" x="7800"/><use href="#mono400-72" x="8400"/><use href="#mono400-106" x="9000"/><use href="#mono400-80" x="9600"/><use href="#mono400-78" x="10200"/><use href="#mono400-92" x="10800"/><use href="#mono400-72" x="11400"/><use href="#mono400-105" x="12000"/></g></g><rect class="caret" x="67.6" y="299.1" width="11.55" height="23.1" fill="#a78bfa"><animate attributeName="x" dur="12.69s" repeatCount="indefinite" calcMode="discrete" keyTimes="0.0000;0.0473;0.0516;0.0559;0.0603;0.0646;0.0689;0.0733;0.0776;0.0819;0.0863;0.0906;0.0949;0.0993;0.1036;0.1079;0.1123;0.1166;0.1209;0.1253;0.2714;0.2736;0.2758;0.2780;0.2802;0.2824;0.2846;0.2869;0.2891;0.2913;0.2935;0.2957;0.2979;0.3001;0.3023;0.3045;0.3067;0.3089;0.3387;0.3430;0.3474;0.3517;0.3560;0.3604;0.3647;0.3690;0.3734;0.3777;0.3820;0.3864;0.3907;0.3950;0.3994;0.4037;0.4080;0.4124;0.4167;0.4210;0.4254;0.4297;0.4340;0.4384;0.4427;0.4470;0.4514;0.4557;0.6018;0.6040;0.6062;0.6084;0.6107;0.6129;0.6151;0.6173;0.6195;0.6217;0.6239;0.6261;0.6283;0.6305;0.6327;0.6349;0.6371;0.6393;0.6415;0.6437;0.6459;0.6482;0.6504;0.6526;0.6548;0.6570;0.6592;0.6890;0.6933;0.6976;0.7020;0.7063;0.7106;0.7150;0.7193;0.7236;0.7280;0.7323;0.7366;0.7410;0.7453;0.7496;0.7540;0.7583;0.7626;0.7670;0.7713;0.7756;0.7800;0.9261;0.9283;0.9305;0.9327;0.9349;0.9371;0.9393;0.9415;0.9437;0.9460;0.9482;0.9504;0.9526;0.9548;0.9570;0.9592;0.9614;0.9636;0.9658;0.9680;0.9702" values="67.6;67.6;80.2;92.8;105.4;118;130.6;143.2;155.8;168.4;181;193.6;206.2;218.8;231.4;244;256.6;269.2;281.8;294.4;281.8;269.2;256.6;244;231.4;218.8;206.2;193.6;181;168.4;155.8;143.2;130.6;118;105.4;92.8;80.2;67.6;67.6;80.2;92.8;105.4;118;130.6;143.2;155.8;168.4;181;193.6;206.2;218.8;231.4;244;256.6;269.2;281.8;294.4;307;319.6;332.2;344.8;357.4;370;382.6;395.2;407.8;395.2;382.6;370;357.4;344.8;332.2;319.6;307;294.4;281.8;269.2;256.6;244;231.4;218.8;206.2;193.6;181;168.4;155.8;143.2;130.6;118;105.4;92.8;80.2;67.6;67.6;80.2;92.8;105.4;118;130.6;143.2;155.8;168.4;181;193.6;206.2;218.8;231.4;244;256.6;269.2;281.8;294.4;307;319.6;332.2;319.6;307;294.4;281.8;269.2;256.6;244;231.4;218.8;206.2;193.6;181;168.4;155.8;143.2;130.6;118;105.4;92.8;80.2;67.6"/></rect></g><g fill="#a29db8" class="rv" style="animation-delay:0.28s"><g transform="translate(40 372) scale(0.01800 -0.01800)"><use href="#sans400-12" x="0"/><use href="#sans400-31" x="501"/><use href="#sans400-50" x="1145"/><use href="#sans400-38" x="1757"/><use href="#sans400-41" x="2002"/><use href="#sans400-33" x="2247"/><use href="#sans400-49" x="3148"/><use href="#sans400-44" x="3590"/><use href="#sans400-44" x="4208"/><use href="#sans400-41" x="4826"/><use href="#sans400-48" x="5071"/><use href="#sans400-49" x="5855"/><use href="#sans400-37" x="6315"/><use href="#sans400-30" x="6928"/><use href="#sans400-49" x="7471"/><use href="#sans400-48" x="8188"/><use href="#sans400-34" x="8715"/><use href="#sans400-34" x="9307"/><use href="#sans400-85" x="9892"/><use href="#sans400-48" x="10367"/><use href="#sans400-44" x="10894"/><use href="#sans400-47" x="11512"/><use href="#sans400-49" x="11889"/><use href="#sans400-30" x="12606"/><use href="#sans400-43" x="13181"/><use href="#sans400-33" x="13794"/><use href="#sans400-30" x="14695"/><use href="#sans400-50" x="15257"/><use href="#sans400-49" x="15869"/><use href="#sans400-44" x="16311"/><use href="#sans400-42" x="16929"/><use href="#sans400-30" x="17789"/><use href="#sans400-49" x="18332"/><use href="#sans400-34" x="18774"/><use href="#sans400-86" x="19366"/><use href="#sans400-32" x="19876"/><use href="#sans400-44" x="20474"/><use href="#sans400-42" x="21092"/><use href="#sans400-45" x="21952"/><use href="#sans400-50" x="22596"/><use href="#sans400-49" x="23208"/><use href="#sans400-34" x="23650"/><use href="#sans400-47" x="24242"/><use href="#sans400-51" x="24876"/><use href="#sans400-38" x="25415"/><use href="#sans400-48" x="25660"/><use href="#sans400-38" x="26187"/><use href="#sans400-44" x="26432"/><use href="#sans400-43" x="27050"/><use href="#sans400-30" x="27920"/><use href="#sans400-43" x="28495"/><use href="#sans400-33" x="29108"/></g></g><g fill="#a29db8" class="rv" style="animation-delay:0.28s"><g transform="translate(40 402) scale(0.01800 -0.01800)"><use href="#sans400-42" x="0"/><use href="#sans400-30" x="860"/><use href="#sans400-32" x="1421"/><use href="#sans400-37" x="2019"/><use href="#sans400-38" x="2632"/><use href="#sans400-43" x="2877"/><use href="#sans400-34" x="3490"/><use href="#sans400-41" x="4339"/><use href="#sans400-34" x="4584"/><use href="#sans400-30" x="5176"/><use href="#sans400-47" x="5751"/><use href="#sans400-43" x="6128"/><use href="#sans400-38" x="6741"/><use href="#sans400-43" x="6986"/><use href="#sans400-36" x="7599"/><use href="#sans400-38" x="8498"/><use href="#sans400-43" x="8743"/><use href="#sans400-19" x="9613"/><use href="#sans400-54" x="10214"/><use href="#sans400-49" x="10826"/><use href="#sans400-37" x="11286"/><use href="#sans400-44" x="11899"/><use href="#sans400-43" x="12517"/><use href="#sans400-85" x="13130"/><use href="#sans400-33" x="13605"/><use href="#sans400-34" x="14249"/><use href="#sans400-48" x="14841"/><use href="#sans400-40" x="15368"/><use href="#sans400-49" x="15906"/><use href="#sans400-44" x="16348"/><use href="#sans400-45" x="16966"/><use href="#sans400-30" x="17867"/><use href="#sans400-45" x="18442"/><use href="#sans400-45" x="19086"/><use href="#sans400-48" x="19730"/><use href="#sans400-52" x="20514"/><use href="#sans400-38" x="21315"/><use href="#sans400-49" x="21560"/><use href="#sans400-37" x="22020"/><use href="#sans400-8" x="22890"/><use href="#sans400-41" x="23453"/><use href="#sans400-34" x="23698"/><use href="#sans400-32" x="24290"/><use href="#sans400-49" x="24868"/><use href="#sans400-47" x="25328"/><use href="#sans400-44" x="25687"/><use href="#sans400-43" x="26305"/><use href="#sans400-30" x="27175"/><use href="#sans400-43" x="27750"/><use href="#sans400-33" x="28363"/><use href="#sans400-23" x="29238"/><use href="#sans400-30" x="29739"/><use href="#sans400-50" x="30301"/><use href="#sans400-47" x="30913"/><use href="#sans400-38" x="31290"/><use href="#sans400-85" x="31535"/></g></g><g fill="#a29db8" class="rv" style="animation-delay:0.28s"><g transform="translate(40 432) scale(0.01800 -0.01800)"><use href="#sans400-30" x="0"/><use href="#sans400-43" x="575"/><use href="#sans400-33" x="1188"/><use href="#sans400-49" x="2089"/><use href="#sans400-37" x="2549"/><use href="#sans400-34" x="3162"/><use href="#sans400-36" x="4011"/><use href="#sans400-41" x="4653"/><use href="#sans400-50" x="4898"/><use href="#sans400-34" x="5510"/><use href="#sans400-32" x="6359"/><use href="#sans400-44" x="6957"/><use href="#sans400-33" x="7575"/><use href="#sans400-34" x="8219"/><use href="#sans400-49" x="9068"/><use href="#sans400-37" x="9528"/><use href="#sans400-30" x="10141"/><use href="#sans400-49" x="10684"/><use href="#sans400-42" x="11401"/><use href="#sans400-30" x="12261"/><use href="#sans400-40" x="12836"/><use href="#sans400-34" x="13348"/><use href="#sans400-48" x="13940"/><use href="#sans400-31" x="14724"/><use href="#sans400-44" x="15368"/><use href="#sans400-47" x="15986"/><use href="#sans400-38" x="16363"/><use href="#sans400-43" x="16608"/><use href="#sans400-36" x="17221"/><use href="#sans400-52" x="18120"/><use href="#sans400-44" x="18911"/><use href="#sans400-47" x="19529"/><use href="#sans400-40" x="19906"/><use href="#sans400-33" x="20701"/><use href="#sans400-38" x="21345"/><use href="#sans400-48" x="21590"/><use href="#sans400-30" x="22113"/><use href="#sans400-45" x="22688"/><use href="#sans400-45" x="23332"/><use href="#sans400-34" x="23976"/><use href="#sans400-30" x="24568"/><use href="#sans400-47" x="25143"/><use href="#sans400-84" x="25456"/></g></g></svg>